<svg xmlns="http://www.w3.org/2000/svg" width="1200" height="630" viewBox="0 0 1200 630">
  <title>Capital Circle — Private Opportunity Marketplace</title>

  <defs>
    <linearGradient id="bg" x1="0%" y1="0%" x2="100%" y2="100%">
      <stop offset="0%" stop-color="#070C1C"/>
      <stop offset="55%" stop-color="#0A1025"/>
      <stop offset="100%" stop-color="#101C3C"/>
    </linearGradient>
    <radialGradient id="blueGlowTR" cx="100%" cy="0%" r="75%">
      <stop offset="0%" stop-color="#2563FF" stop-opacity="0.32"/>
      <stop offset="55%" stop-color="#2563FF" stop-opacity="0"/>
    </radialGradient>
    <radialGradient id="blueGlowBL" cx="0%" cy="100%" r="60%">
      <stop offset="0%" stop-color="#4B6CA8" stop-opacity="0.28"/>
      <stop offset="60%" stop-color="#4B6CA8" stop-opacity="0"/>
    </radialGradient>
    <linearGradient id="ring" x1="15%" y1="90%" x2="85%" y2="10%">
      <stop offset="0%" stop-color="#6F9BFF"/>
      <stop offset="60%" stop-color="#2563FF"/>
      <stop offset="100%" stop-color="#2563FF"/>
    </linearGradient>
    <radialGradient id="dotGlow" cx="50%" cy="50%" r="50%">
      <stop offset="0%" stop-color="#5B86FF"/>
      <stop offset="55%" stop-color="#2563FF"/>
      <stop offset="100%" stop-color="#2563FF" stop-opacity="0"/>
    </radialGradient>
  </defs>

  <!-- Background layers -->
  <rect width="1200" height="630" fill="url(#bg)"/>
  <rect width="1200" height="630" fill="url(#blueGlowBL)"/>
  <rect width="1200" height="630" fill="url(#blueGlowTR)"/>

  <!-- Subtle grid -->
  <g opacity="0.06" stroke="#ffffff" stroke-width="1">
    <line x1="0" y1="90" x2="1200" y2="90"/><line x1="0" y1="180" x2="1200" y2="180"/>
    <line x1="0" y1="270" x2="1200" y2="270"/><line x1="0" y1="360" x2="1200" y2="360"/>
    <line x1="0" y1="450" x2="1200" y2="450"/><line x1="0" y1="540" x2="1200" y2="540"/>
    <line x1="120" y1="0" x2="120" y2="630"/><line x1="240" y1="0" x2="240" y2="630"/>
    <line x1="360" y1="0" x2="360" y2="630"/><line x1="480" y1="0" x2="480" y2="630"/>
    <line x1="600" y1="0" x2="600" y2="630"/><line x1="720" y1="0" x2="720" y2="630"/>
    <line x1="840" y1="0" x2="840" y2="630"/><line x1="960" y1="0" x2="960" y2="630"/>
    <line x1="1080" y1="0" x2="1080" y2="630"/>
  </g>

  <!-- Orbit mark (left, vertically centered). Designed in 0-100 space, scaled 2.5x, placed at (110, 185). -->
  <g transform="translate(110 185) scale(2.5)">
    <circle cx="50" cy="50" r="33" fill="none" stroke="url(#ring)" stroke-width="7"
            stroke-linecap="round" stroke-dasharray="181 26" transform="rotate(-30 50 50)"/>
    <circle cx="70" cy="24" r="15" fill="url(#dotGlow)"/>
    <circle cx="70" cy="24" r="6.8" fill="#2563FF"/>
  </g>

  <!-- Text block -->
  <g font-family="Helvetica, Arial, sans-serif">
    <text x="470" y="232" font-size="22" font-weight="700" fill="#2563FF" letter-spacing="6">PRIVATE OPPORTUNITY MARKETPLACE</text>
    <text x="468" y="332" font-size="86" font-weight="700" fill="#ffffff" letter-spacing="-2">Capital Circle</text>
    <line x1="470" y1="370" x2="570" y2="370" stroke="#2563FF" stroke-width="3" stroke-linecap="round"/>
    <text x="470" y="438" font-size="32" font-weight="400" fill="#ffffff" opacity="0.88">Where serious capital</text>
    <text x="470" y="484" font-size="32" font-weight="400" fill="#ffffff" opacity="0.88">meets real opportunity.</text>
  </g>

  <!-- Bottom stat strip -->
  <g font-family="Helvetica, Arial, sans-serif" fill="#ffffff" opacity="0.72">
    <text x="470" y="560" font-size="16" font-weight="600" letter-spacing="3">$2.4B+ DEAL FLOW</text>
    <text x="710" y="560" font-size="16" font-weight="600" letter-spacing="3">·</text>
    <text x="735" y="560" font-size="16" font-weight="600" letter-spacing="3">1,200+ MEMBERS</text>
    <text x="965" y="560" font-size="16" font-weight="600" letter-spacing="3">·</text>
    <text x="990" y="560" font-size="16" font-weight="600" letter-spacing="3">47 COUNTRIES</text>
  </g>
</svg>
